<?xml version="1.0" encoding="utf-8"?>
<!-- Generator: Adobe Illustrator 23.0.0, SVG Export Plug-In . SVG Version: 6.00 Build 0)  -->
<svg version="1.1" id="Capa_1" xmlns="http://www.w3.org/2000/svg" xmlns:xlink="http://www.w3.org/1999/xlink" x="0px" y="0px"
	 viewBox="0 0 400 172" style="enable-background:new 0 0 400 172;" xml:space="preserve">
<style type="text/css">
	.st0{fill:#C91051;}
</style>
<g>
	<path class="st0" d="M74.08,46.09c-22.56,0-40.91,18.35-40.91,40.91c0,22.56,18.35,40.91,40.91,40.91
		C96.64,127.91,115,109.56,115,87C115,64.44,96.64,46.09,74.08,46.09z M74.08,117.91c-17.05,0-30.91-13.87-30.91-30.91
		s13.87-30.91,30.91-30.91S105,69.95,105,87S91.13,117.91,74.08,117.91z"/>
	<path class="st0" d="M138.95,83.26c-1.95-34.1-30.29-61.24-64.87-61.24C38.25,22.02,9.1,51.17,9.1,87s29.15,64.98,64.98,64.98
		c2.33,0,4.62-0.13,6.88-0.37v0.15h240.08l68.51-68.51H138.95z M19.1,87c0-30.32,24.67-54.98,54.98-54.98S129.07,56.68,129.07,87
		c0,30.32-24.67,54.98-54.98,54.98S19.1,117.32,19.1,87z M316.9,141.77H109c16.4-10.49,27.81-28.14,29.76-48.51h226.65L316.9,141.77
		z"/>
</g>
</svg>
