<?xml version="1.0" encoding="utf-8"?>
<!-- Generator: Adobe Illustrator 23.0.0, SVG Export Plug-In . SVG Version: 6.00 Build 0)  -->
<svg version="1.1" id="Capa_1" xmlns="http://www.w3.org/2000/svg" xmlns:xlink="http://www.w3.org/1999/xlink" x="0px" y="0px"
	 viewBox="0 0 400 172" style="enable-background:new 0 0 400 172;" xml:space="preserve">
<style type="text/css">
	.st0{fill:#C91051;}
</style>
<g>
	<path class="st0" d="M203.5,115.23c-28.13,0-54.63-3.36-74.64-9.45C106.71,99.03,95,89.67,95,78.7s11.71-20.33,33.86-27.08
		c20.01-6.1,46.52-9.45,74.64-9.45s54.63,3.36,74.64,9.45C300.29,58.37,312,67.73,312,78.7s-11.71,20.33-33.86,27.08
		C258.13,111.88,231.63,115.23,203.5,115.23z M203.5,52.17c-61.03,0-98.5,15.45-98.5,26.53s37.47,26.53,98.5,26.53
		S302,89.78,302,78.7S264.53,52.17,203.5,52.17z"/>
</g>
<g>
	<path class="st0" d="M203.5,143.22c-28.13,0-54.63-3.36-74.64-9.45C106.71,127.02,95,117.66,95,106.69c0-2.76,2.24-5,5-5
		s5,2.24,5,5c0,11.08,37.47,26.53,98.5,26.53s98.5-15.45,98.5-26.53c0-2.76,2.24-5,5-5s5,2.24,5,5c0,10.97-11.71,20.33-33.86,27.08
		C258.13,139.87,231.63,143.22,203.5,143.22z"/>
</g>
<g>
	<path class="st0" d="M64.47,101.91c-1.8,0-3.54-0.98-4.44-2.69c-3.91-7.5-1.72-19.26,6.01-32.26
		c8.01-13.46,22.16-28.03,34.32-28.23c2.79-0.06,5.04,2.16,5.08,4.92c0.04,2.76-2.16,5.04-4.92,5.08
		c-6.68,0.11-18.3,10.58-25.89,23.34c-5.66,9.52-7.92,18.36-5.74,22.52c1.28,2.45,0.33,5.47-2.12,6.75
		C66.04,101.73,65.25,101.91,64.47,101.91z"/>
</g>
<g>
	<path class="st0" d="M41.97,86.41c-1.8,0-3.54-0.98-4.44-2.69c-3.91-7.5-1.72-19.26,6.01-32.26C51.55,38,65.7,23.43,77.86,23.23
		c2.79-0.03,5.04,2.16,5.08,4.92c0.04,2.76-2.16,5.04-4.92,5.08c-6.68,0.11-18.3,10.58-25.89,23.34
		c-5.66,9.52-7.92,18.36-5.74,22.52c1.28,2.45,0.33,5.47-2.12,6.75C43.54,86.23,42.75,86.41,41.97,86.41z"/>
</g>
<g>
	<path class="st0" d="M306.55,138.27c-2.72,0-4.95-2.18-5-4.92c-0.05-2.76,2.16-5.04,4.92-5.08c6.68-0.11,18.3-10.58,25.89-23.34
		c5.66-9.52,7.92-18.36,5.74-22.52c-1.28-2.45-0.33-5.47,2.12-6.75c2.45-1.28,5.47-0.33,6.75,2.12c3.91,7.5,1.72,19.26-6.01,32.26
		c-8.01,13.46-22.16,28.03-34.32,28.23C306.61,138.27,306.58,138.27,306.55,138.27z"/>
</g>
<g>
	<path class="st0" d="M329.05,153.77c-2.72,0-4.95-2.18-5-4.92c-0.05-2.76,2.16-5.04,4.92-5.08c6.68-0.11,18.3-10.58,25.89-23.34
		c5.66-9.52,7.92-18.36,5.74-22.52c-1.28-2.45-0.33-5.47,2.12-6.75c2.45-1.28,5.47-0.33,6.75,2.12c3.91,7.5,1.72,19.26-6.01,32.26
		c-8.01,13.46-22.16,28.03-34.32,28.23C329.11,153.77,329.08,153.77,329.05,153.77z"/>
</g>
</svg>
